# xmcd
#
# Track frame offsets:
#	150
#	13502
#	27600
#	40815
#	52605
#	66267
#	76532
#	85455
#	96800
#	108960
#	122295
#	127962
#	139562
#	153340
#	168237
#	186867
#	199472
#
# Disc length: 2828 seconds
#
# Revision: 0
# Processed by: cddbd v1.5.1PL0 Copyright (c) Steve Scherf et al.
# Submitted via: dBpowerAMP V4.0
#
DISCID=cf0b0a11
DTITLE=Various Artist - Catfish Blues Mississippi Blues From Jackson and Crystal Springs
DYEAR=1993
DGENRE=Blues
TTITLE0=Track01 Catfish Blues
TTITLE1=Track02 Highway 80 Blues
TTITLE2=Track03 Packin´ Up Blues
TTITLE3=Track04 Little Milton´s Boogie
TTITLE4=Track05 Mistreated Baby Blues
TTITLE5=Track06 Blow It Down
TTITLE6=Track07 Jackson Juke
TTITLE7=Track08 Travelling Blues
TTITLE8=Track09 Mercy Blues
TTITLE9=Track10 Few Clothes
TTITLE10=Track11 Boogie
TTITLE11=Track12 I Hate To Hear My Good Gal Call My Name
TTITLE12=Track13 Big Road Blues
TTITLE13=Track14 Talkin´´Bout You
TTITLE14=Track15 That´s Allright
TTITLE15=Track16 Pony Blues
TTITLE16=Track17 Kind Hearted Woman
EXTD=
EXTT0=
EXTT1=
EXTT2=
EXTT3=
EXTT4=
EXTT5=
EXTT6=
EXTT7=
EXTT8=
EXTT9=
EXTT10=
EXTT11=
EXTT12=
EXTT13=
EXTT14=
EXTT15=
EXTT16=
PLAYORDER=
